<svg xmlns="http://www.w3.org/2000/svg" xmlns:xlink="http://www.w3.org/1999/xlink" width="500" zoomAndPan="magnify" viewBox="0 0 375 374.999991" height="500" preserveAspectRatio="xMidYMid meet" version="1.2"><defs/><g id="140e03c8f2"><g style="fill:#000000;fill-opacity:1;"><g transform="translate(18.426848, 241.439769)"><path style="stroke:none" d="M 41.78125 -92 C 41.78125 -92.863281 41.632812 -93.875 41.34375 -95.03125 C 41.050781 -96.1875 40.867188 -96.941406 40.796875 -97.296875 C 40.734375 -97.660156 40.84375 -98.203125 41.125 -98.921875 C 42.132812 -100.078125 43.289062 -101.125 44.59375 -102.0625 C 45.894531 -103 47.953125 -104.1875 50.765625 -105.625 C 53.578125 -107.070312 55.773438 -108.300781 57.359375 -109.3125 C 58.085938 -109.75 59.023438 -110.179688 60.171875 -110.609375 L 60.609375 -109.96875 C 59.453125 -108.8125 58.800781 -107.945312 58.65625 -107.375 C 57.9375 -104.914062 57.578125 -101.085938 57.578125 -95.890625 C 57.722656 -91.273438 57.796875 -84.421875 57.796875 -75.328125 C 59.097656 -78.066406 59.820312 -79.875 59.96875 -80.75 L 61.90625 -89.1875 C 63.78125 -96.40625 66.378906 -103.40625 69.703125 -110.1875 C 69.847656 -110.757812 70.207031 -111.191406 70.78125 -111.484375 C 73.519531 -110.765625 75.253906 -110.257812 75.984375 -109.96875 C 78.148438 -109.101562 81.070312 -108.234375 84.75 -107.359375 C 88.425781 -106.492188 92.609375 -105.878906 97.296875 -105.515625 C 101.992188 -105.160156 105.421875 -105.707031 107.578125 -107.15625 C 101.953125 -101.519531 98.925781 -95.171875 98.5 -88.109375 C 97.914062 -82.910156 97.800781 -72.804688 98.15625 -57.796875 C 98.519531 -42.785156 98.632812 -32.613281 98.5 -27.28125 C 98.0625 -22.507812 94.882812 -17.453125 88.96875 -12.109375 C 83.050781 -6.773438 76.914062 -2.882812 70.5625 -0.4375 C 69.269531 0 68.257812 0.289062 67.53125 0.4375 C 66.957031 0.582031 65.734375 1.015625 63.859375 1.734375 L 63.421875 1.734375 C 63.273438 1.585938 63.707031 1.226562 64.71875 0.65625 C 65.007812 0.363281 65.15625 0.21875 65.15625 0.21875 C 61.257812 0.507812 57.398438 -0.425781 53.578125 -2.59375 C 49.753906 -4.757812 46.832031 -7.578125 44.8125 -11.046875 C 43.65625 -9.160156 41.921875 -7.351562 39.609375 -5.625 C 37.304688 -3.894531 34.640625 -2.09375 31.609375 -0.21875 C 28.578125 1.65625 26.695312 2.8125 25.96875 3.25 C 25.832031 3.394531 25.582031 3.25 25.21875 2.8125 C 24.851562 2.382812 24.601562 2.171875 24.46875 2.171875 C 24.601562 2.023438 24.882812 1.734375 25.3125 1.296875 C 25.75 0.867188 26.113281 0.472656 26.40625 0.109375 C 26.695312 -0.253906 26.769531 -0.4375 26.625 -0.4375 C 17.675781 -4.476562 11.6875 -9.671875 8.65625 -16.015625 C 7.789062 -14.859375 6.347656 -14.425781 4.328125 -14.71875 C 4.179688 -14.71875 3.96875 -15.078125 3.6875 -15.796875 C 4.550781 -16.234375 5.269531 -17.132812 5.84375 -18.5 C 6.414062 -19.875 6.632812 -20.921875 6.5 -21.640625 C 6.5 -22.078125 6.5 -23.664062 6.5 -26.40625 C 6.5 -29.144531 6.53125 -32.96875 6.59375 -37.875 C 6.664062 -42.78125 6.703125 -47.1875 6.703125 -51.09375 C 6.703125 -51.226562 6.738281 -52.773438 6.8125 -55.734375 C 6.882812 -58.691406 6.882812 -61.46875 6.8125 -64.0625 C 6.738281 -66.664062 6.664062 -69.878906 6.59375 -73.703125 C 6.53125 -77.523438 6.390625 -80.878906 6.171875 -83.765625 C 5.953125 -86.660156 5.585938 -89.367188 5.078125 -91.890625 C 4.578125 -94.410156 3.929688 -96.175781 3.140625 -97.1875 C 2.347656 -98.195312 1.445312 -98.269531 0.4375 -97.40625 C 0.71875 -100.726562 3.097656 -104.769531 7.578125 -109.53125 C 8.441406 -111.125 10.894531 -110.835938 14.9375 -108.671875 C 18.976562 -106.503906 21.070312 -104.554688 21.21875 -102.828125 C 21.363281 -97.484375 21.46875 -84.742188 21.53125 -64.609375 C 21.601562 -44.484375 21.640625 -31.75 21.640625 -26.40625 C 22.078125 -23.226562 23.085938 -20.664062 24.671875 -18.71875 C 26.265625 -16.769531 28.648438 -14.71875 31.828125 -12.5625 L 32.90625 -11.6875 C 35.789062 -10.25 37.882812 -9.457031 39.1875 -9.3125 C 39.757812 -9.3125 40.625 -9.957031 41.78125 -11.25 C 42.9375 -12.550781 43.585938 -13.992188 43.734375 -15.578125 C 43.441406 -16.734375 43.296875 -17.742188 43.296875 -18.609375 C 42.710938 -29.148438 42.351562 -36.875 42.21875 -41.78125 L 40.046875 -41.78125 C 39.898438 -41.925781 39.035156 -41.925781 37.453125 -41.78125 C 33.265625 -41.488281 30.234375 -40.765625 28.359375 -39.609375 C 27.203125 -38.742188 25.832031 -36.4375 24.25 -32.6875 L 23.8125 -32.90625 C 23.375 -32.90625 23.15625 -33.050781 23.15625 -33.34375 C 24.03125 -37.09375 25.546875 -41.128906 27.703125 -45.453125 C 29.867188 -49.785156 32.25 -52.457031 34.84375 -53.46875 C 35.132812 -53.613281 35.640625 -53.6875 36.359375 -53.6875 L 42 -53.90625 C 41.851562 -62.414062 41.78125 -75.113281 41.78125 -92 Z M 58.015625 -64.078125 L 58.015625 -53.90625 C 65.660156 -54.1875 70.492188 -55.050781 72.515625 -56.5 C 73.671875 -57.363281 75.039062 -59.597656 76.625 -63.203125 L 77.0625 -63.203125 C 77.5 -63.066406 77.71875 -62.925781 77.71875 -62.78125 C 76.84375 -58.882812 75.320312 -54.769531 73.15625 -50.4375 C 71 -46.101562 68.617188 -43.429688 66.015625 -42.421875 C 65.585938 -42.421875 64.976562 -42.382812 64.1875 -42.3125 C 63.394531 -42.25 62.421875 -42.179688 61.265625 -42.109375 C 60.109375 -42.035156 59.097656 -42 58.234375 -42 C 58.085938 -40.695312 58.015625 -38.53125 58.015625 -35.5 C 58.015625 -34.78125 58.050781 -33.914062 58.125 -32.90625 C 58.195312 -31.894531 58.234375 -31.171875 58.234375 -30.734375 C 58.085938 -23.234375 60.429688 -17.03125 65.265625 -12.125 C 70.097656 -7.21875 74.820312 -5.914062 79.4375 -8.21875 C 82.1875 -9.664062 83.847656 -13.492188 84.421875 -19.703125 C 84.710938 -22.878906 84.457031 -30.3125 83.65625 -42 C 82.863281 -53.6875 82.613281 -64.039062 82.90625 -73.0625 C 83.195312 -82.082031 84.640625 -87.382812 87.234375 -88.96875 C 87.816406 -89.257812 88.539062 -89.546875 89.40625 -89.828125 C 87.957031 -89.828125 86.582031 -89.972656 85.28125 -90.265625 C 84.5625 -90.410156 83.15625 -90.734375 81.0625 -91.234375 C 78.96875 -91.742188 77.128906 -92.109375 75.546875 -92.328125 C 73.960938 -92.546875 72.265625 -92.65625 70.453125 -92.65625 C 68.648438 -92.65625 67.097656 -92.113281 65.796875 -91.03125 C 64.503906 -89.945312 63.570312 -88.394531 63 -86.375 C 62.851562 -85.363281 62.273438 -83.125 61.265625 -79.65625 C 60.253906 -76.195312 59.457031 -73.054688 58.875 -70.234375 C 58.300781 -67.421875 58.015625 -65.367188 58.015625 -64.078125 Z M 58.015625 -64.078125 "/></g></g><g style="fill:#000000;fill-opacity:1;"><g transform="translate(122.329056, 241.439769)"><path style="stroke:none" d="M 19.484375 -45.890625 C 18.898438 -42.285156 19.617188 -38.640625 21.640625 -34.953125 C 23.660156 -31.273438 26.1875 -28.140625 29.21875 -25.546875 C 36.289062 -19.628906 42.390625 -15.660156 47.515625 -13.640625 C 52.640625 -11.617188 56.25 -11.003906 58.34375 -11.796875 C 60.4375 -12.585938 62.671875 -13.992188 65.046875 -16.015625 C 67.429688 -18.035156 68.984375 -19.191406 69.703125 -19.484375 C 64.648438 -12.265625 59.34375 -6.992188 53.78125 -3.671875 C 48.226562 -0.359375 43.867188 0.578125 40.703125 -0.859375 C 29.296875 -5.765625 21.066406 -11.066406 16.015625 -16.765625 C 10.960938 -22.472656 8.648438 -28.03125 9.078125 -33.4375 C 9.515625 -38.851562 11.828125 -44.804688 16.015625 -51.296875 C 18.753906 -55.484375 22.578125 -60.25 27.484375 -65.59375 C 27.203125 -65.875 25.363281 -67.273438 21.96875 -69.796875 C 18.582031 -72.328125 16.382812 -74.53125 15.375 -76.40625 C 13.5 -80.019531 14.253906 -85.757812 17.640625 -93.625 C 21.035156 -101.488281 25.472656 -108.847656 30.953125 -115.703125 C 36.441406 -122.554688 41.0625 -126.628906 44.8125 -127.921875 C 48.5625 -129.222656 54.691406 -127.347656 63.203125 -122.296875 C 71.722656 -117.253906 76.125 -112.640625 76.40625 -108.453125 C 76.695312 -103.972656 74.710938 -99.132812 70.453125 -93.9375 C 66.203125 -88.75 59.601562 -81.96875 50.65625 -73.59375 C 53.832031 -72.007812 57.296875 -68.867188 61.046875 -64.171875 C 64.796875 -59.484375 69.484375 -53.101562 75.109375 -45.03125 C 77.992188 -47.332031 80.378906 -49.132812 82.265625 -50.4375 C 82.398438 -50.582031 82.578125 -50.726562 82.796875 -50.875 C 83.015625 -51.019531 83.195312 -51.09375 83.34375 -51.09375 L 83.984375 -51.09375 C 85.429688 -51.375 87.597656 -51.007812 90.484375 -50 C 91.492188 -49.425781 92.539062 -48.707031 93.625 -47.84375 C 94.707031 -46.976562 95.535156 -46.179688 96.109375 -45.453125 L 96.984375 -44.59375 C 96.109375 -44.882812 95.457031 -45.03125 95.03125 -45.03125 C 93.582031 -45.03125 91.34375 -44.019531 88.3125 -42 C 85.863281 -40.40625 83.410156 -38.671875 80.953125 -36.796875 C 86.867188 -28.710938 92.097656 -22.6875 96.640625 -18.71875 C 101.191406 -14.75 105.34375 -13.488281 109.09375 -14.9375 C 111.113281 -15.65625 112.84375 -16.804688 114.28125 -18.390625 C 115.726562 -19.984375 116.882812 -21.535156 117.75 -23.046875 C 118.625 -24.566406 119.273438 -25.472656 119.703125 -25.765625 C 118.691406 -21.140625 114.9375 -15.796875 108.4375 -9.734375 C 101.945312 -3.679688 96.972656 -0.65625 93.515625 -0.65625 C 88.609375 -0.65625 80.09375 -9.3125 67.96875 -26.625 C 64.507812 -24.03125 61.984375 -22.082031 60.390625 -20.78125 C 59.816406 -20.488281 59.457031 -20.269531 59.3125 -20.125 L 58.65625 -20.125 C 57.21875 -19.84375 54.695312 -20.347656 51.09375 -21.640625 C 50.082031 -22.222656 49.140625 -22.910156 48.265625 -23.703125 C 47.398438 -24.492188 46.753906 -25.179688 46.328125 -25.765625 L 45.671875 -26.625 C 46.535156 -26.332031 47.1875 -26.1875 47.625 -26.1875 C 49.351562 -26.476562 51.585938 -27.488281 54.328125 -29.21875 C 55.921875 -30.519531 58.445312 -32.46875 61.90625 -35.0625 C 51.945312 -49.351562 44.515625 -57.722656 39.609375 -60.171875 C 35.140625 -62.191406 32.109375 -63.492188 30.515625 -64.078125 C 23.878906 -57.003906 20.203125 -50.941406 19.484375 -45.890625 Z M 47.40625 -74.890625 C 52.601562 -78.796875 56.75 -83.34375 59.84375 -88.53125 C 62.945312 -93.726562 63.925781 -97.625 62.78125 -100.21875 C 60.90625 -104.84375 56.972656 -108.5625 50.984375 -111.375 C 44.992188 -114.1875 39.757812 -114.867188 35.28125 -113.421875 C 32.832031 -112.554688 30.453125 -110.320312 28.140625 -106.71875 C 25.828125 -103.113281 24.457031 -99.722656 24.03125 -96.546875 C 22.875 -88.898438 30.664062 -81.679688 47.40625 -74.890625 Z M 47.40625 -74.890625 "/></g></g><g style="fill:#000000;fill-opacity:1;"><g transform="translate(245.712916, 241.439769)"><path style="stroke:none" d="M 21.4375 -86.796875 C 21.4375 -84.347656 21.503906 -82.398438 21.640625 -80.953125 C 21.929688 -82.398438 22.222656 -83.628906 22.515625 -84.640625 C 23.234375 -87.523438 24.960938 -92.9375 27.703125 -100.875 C 30.453125 -108.8125 32.332031 -113.140625 33.34375 -113.859375 C 33.476562 -113.859375 33.617188 -113.859375 33.765625 -113.859375 C 33.910156 -113.859375 33.910156 -113.785156 33.765625 -113.640625 C 33.617188 -112.628906 33.617188 -112.054688 33.765625 -111.921875 L 38.09375 -110.40625 C 40.550781 -109.53125 43.398438 -108.734375 46.640625 -108.015625 C 49.890625 -107.296875 53.710938 -106.753906 58.109375 -106.390625 C 62.515625 -106.035156 65.726562 -106.578125 67.75 -108.015625 C 67.894531 -108.160156 67.96875 -108.085938 67.96875 -107.796875 C 68.257812 -106.503906 67.539062 -105.421875 65.8125 -104.546875 C 65.519531 -103.398438 65.15625 -102.679688 64.71875 -102.390625 C 64.570312 -102.097656 64.25 -101.628906 63.75 -100.984375 C 63.25 -100.335938 62.851562 -99.867188 62.5625 -99.578125 L 61.265625 -98.28125 C 61.265625 -98.132812 61.191406 -98.0625 61.046875 -98.0625 C 60.753906 -97.769531 60.753906 -91.707031 61.046875 -79.875 L 61.484375 -80.953125 C 61.910156 -83.117188 62.195312 -84.347656 62.34375 -84.640625 C 62.632812 -85.503906 63.03125 -86.691406 63.53125 -88.203125 C 64.039062 -89.722656 64.4375 -90.953125 64.71875 -91.890625 C 65.007812 -92.828125 65.40625 -93.976562 65.90625 -95.34375 C 66.414062 -96.71875 66.847656 -97.835938 67.203125 -98.703125 C 67.566406 -99.578125 68 -100.585938 68.5 -101.734375 C 69.007812 -102.890625 69.445312 -103.828125 69.8125 -104.546875 C 70.175781 -105.273438 70.609375 -106 71.109375 -106.71875 C 71.617188 -107.4375 72.125 -108.007812 72.625 -108.4375 C 73.132812 -108.875 73.601562 -109.164062 74.03125 -109.3125 C 75.332031 -109.75 78.003906 -109.460938 82.046875 -108.453125 C 85.648438 -107.003906 89.722656 -106.132812 94.265625 -105.84375 C 98.816406 -105.5625 103.253906 -106.285156 107.578125 -108.015625 C 107.722656 -108.160156 107.796875 -108.085938 107.796875 -107.796875 C 108.085938 -106.503906 107.367188 -105.421875 105.640625 -104.546875 C 105.347656 -103.398438 104.984375 -102.679688 104.546875 -102.390625 C 104.265625 -102.097656 103.867188 -101.628906 103.359375 -100.984375 C 102.859375 -100.335938 102.535156 -99.867188 102.390625 -99.578125 L 101.09375 -98.28125 C 101.09375 -98.132812 101.019531 -98.0625 100.875 -98.0625 C 100.582031 -96.46875 100.472656 -94.585938 100.546875 -92.421875 C 100.617188 -90.265625 100.726562 -86.550781 100.875 -81.28125 C 101.019531 -76.019531 101.09375 -72.234375 101.09375 -69.921875 C 101.238281 -67.753906 101.273438 -64.972656 101.203125 -61.578125 C 101.128906 -58.191406 101.09375 -55.34375 101.09375 -53.03125 L 101.09375 -38.75 C 101.09375 -38.457031 100.984375 -35.785156 100.765625 -30.734375 C 100.546875 -25.679688 100.726562 -23.085938 101.3125 -22.953125 C 102.601562 -12.992188 106.5 -10.753906 113 -16.234375 L 113.421875 -15.796875 C 111.984375 -13.203125 109.675781 -9.992188 106.5 -6.171875 C 103.320312 -2.347656 101.300781 -0.4375 100.4375 -0.4375 C 98.707031 -0.4375 97.226562 -0.613281 96 -0.96875 C 94.769531 -1.332031 93.722656 -2.09375 92.859375 -3.25 C 91.992188 -4.40625 91.378906 -5.269531 91.015625 -5.84375 C 90.660156 -6.414062 90.050781 -7.644531 89.1875 -9.53125 C 87.59375 -13.132812 86.796875 -19.335938 86.796875 -28.140625 C 86.796875 -34.921875 86.6875 -42.492188 86.46875 -50.859375 C 86.257812 -59.234375 86.15625 -66.8125 86.15625 -73.59375 C 86.15625 -74.894531 86.046875 -76.050781 85.828125 -77.0625 C 85.609375 -78.070312 85.570312 -78.789062 85.71875 -79.21875 C 85.863281 -79.65625 86.148438 -80.34375 86.578125 -81.28125 C 87.015625 -82.21875 88.03125 -84.054688 89.625 -86.796875 C 90.050781 -87.671875 91.128906 -88.972656 92.859375 -90.703125 C 92.285156 -90.410156 91.421875 -90.265625 90.265625 -90.265625 L 89.625 -90.265625 L 89.1875 -90.484375 C 89.039062 -90.484375 88.894531 -90.484375 88.75 -90.484375 L 88.53125 -90.484375 C 87.375 -90.773438 85.460938 -91.316406 82.796875 -92.109375 C 80.128906 -92.898438 78.253906 -93.332031 77.171875 -93.40625 C 76.085938 -93.476562 74.25 -93.367188 71.65625 -93.078125 L 69.703125 -92.4375 C 67.109375 -91.132812 64.507812 -84.925781 61.90625 -73.8125 C 61.625 -72.375 61.484375 -71.4375 61.484375 -71 L 61.484375 -60.609375 C 67.972656 -60.898438 72.15625 -61.695312 74.03125 -63 C 75.039062 -63.71875 76.335938 -65.804688 77.921875 -69.265625 L 78.359375 -69.265625 C 78.796875 -69.117188 79.015625 -68.976562 79.015625 -68.84375 C 78.148438 -65.226562 76.707031 -61.398438 74.6875 -57.359375 C 72.664062 -53.316406 70.425781 -50.789062 67.96875 -49.78125 C 66.53125 -49.5 64.296875 -49.359375 61.265625 -49.359375 L 61.265625 -38.75 C 61.265625 -38.457031 61.15625 -35.785156 60.9375 -30.734375 C 60.71875 -25.679688 60.898438 -23.085938 61.484375 -22.953125 C 62.773438 -12.992188 66.671875 -10.753906 73.171875 -16.234375 L 73.59375 -15.796875 C 72.007812 -12.910156 69.773438 -9.628906 66.890625 -5.953125 C 64.003906 -2.273438 61.910156 -0.4375 60.609375 -0.4375 C 58.878906 -0.4375 57.398438 -0.613281 56.171875 -0.96875 C 54.941406 -1.332031 53.894531 -2.09375 53.03125 -3.25 C 52.164062 -4.40625 51.550781 -5.269531 51.1875 -5.84375 C 50.832031 -6.414062 50.222656 -7.644531 49.359375 -9.53125 C 47.765625 -13.132812 46.96875 -19.335938 46.96875 -28.140625 C 46.96875 -31.609375 46.929688 -35.648438 46.859375 -40.265625 C 46.785156 -44.878906 46.75 -47.984375 46.75 -49.578125 C 44.15625 -49.578125 42.28125 -49.503906 41.125 -49.359375 C 37.226562 -49.066406 34.34375 -48.34375 32.46875 -47.1875 C 31.457031 -46.320312 30.160156 -44.160156 28.578125 -40.703125 C 28.578125 -40.835938 28.429688 -40.90625 28.140625 -40.90625 L 27.703125 -41.34375 C 28.566406 -45.09375 30.007812 -48.953125 32.03125 -52.921875 C 34.050781 -56.890625 36.289062 -59.378906 38.75 -60.390625 C 39.320312 -60.390625 39.828125 -60.460938 40.265625 -60.609375 L 46.546875 -60.609375 C 46.546875 -61.765625 46.507812 -63.75 46.4375 -66.5625 C 46.363281 -69.375 46.328125 -71.71875 46.328125 -73.59375 C 46.328125 -74.894531 46.21875 -76.050781 46 -77.0625 C 45.78125 -78.070312 45.742188 -78.789062 45.890625 -79.21875 C 46.035156 -79.65625 46.320312 -80.34375 46.75 -81.28125 C 47.1875 -82.21875 48.195312 -84.054688 49.78125 -86.796875 C 50.21875 -87.671875 51.300781 -88.972656 53.03125 -90.703125 C 52.457031 -90.410156 51.59375 -90.265625 50.4375 -90.265625 L 49.78125 -90.265625 L 49.359375 -90.484375 C 49.210938 -90.484375 49.066406 -90.484375 48.921875 -90.484375 L 48.703125 -90.484375 C 47.546875 -90.773438 45.632812 -91.316406 42.96875 -92.109375 C 40.300781 -92.898438 38.425781 -93.332031 37.34375 -93.40625 C 36.257812 -93.476562 34.421875 -93.367188 31.828125 -93.078125 L 29.875 -92.4375 C 27.269531 -91.132812 24.671875 -84.925781 22.078125 -73.8125 C 21.785156 -72.375 21.640625 -71.4375 21.640625 -71 L 21.640625 -67.53125 C 21.640625 -67.394531 21.570312 -67.253906 21.4375 -67.109375 L 21.4375 -38.75 C 21.4375 -38.457031 21.328125 -35.785156 21.109375 -30.734375 C 20.890625 -25.679688 21.066406 -23.085938 21.640625 -22.953125 C 23.234375 -12.992188 27.132812 -10.753906 33.34375 -16.234375 L 33.765625 -15.796875 C 32.609375 -13.347656 30.40625 -10.175781 27.15625 -6.28125 C 23.914062 -2.382812 21.789062 -0.4375 20.78125 -0.4375 C 19.050781 -0.4375 17.570312 -0.613281 16.34375 -0.96875 C 15.113281 -1.332031 14.066406 -2.09375 13.203125 -3.25 C 12.335938 -4.40625 11.722656 -5.269531 11.359375 -5.84375 C 11.003906 -6.414062 10.394531 -7.644531 9.53125 -9.53125 C 7.9375 -13.132812 7.140625 -19.335938 7.140625 -28.140625 C 7.140625 -38.242188 7.066406 -45.960938 6.921875 -51.296875 C 6.921875 -55.628906 6.882812 -62.195312 6.8125 -71 C 6.738281 -79.800781 6.703125 -86.296875 6.703125 -90.484375 C 6.703125 -90.628906 6.703125 -90.847656 6.703125 -91.140625 C 6.703125 -92.148438 6.703125 -92.941406 6.703125 -93.515625 C 6.703125 -94.085938 6.628906 -94.953125 6.484375 -96.109375 C 6.347656 -97.265625 6.132812 -98.128906 5.84375 -98.703125 C 5.550781 -99.285156 5.1875 -99.828125 4.75 -100.328125 C 4.320312 -100.835938 3.710938 -100.984375 2.921875 -100.765625 C 2.128906 -100.546875 1.226562 -100.078125 0.21875 -99.359375 C 0.644531 -102.535156 3.023438 -106.578125 7.359375 -111.484375 C 8.222656 -112.921875 10.640625 -112.664062 14.609375 -110.71875 C 18.578125 -108.769531 20.707031 -106.859375 21 -104.984375 C 21.289062 -104.117188 21.4375 -98.054688 21.4375 -86.796875 Z M 21.4375 -86.796875 "/></g></g></g></svg>