<svg xmlns="http://www.w3.org/2000/svg" xmlns:xlink="http://www.w3.org/1999/xlink" width="500" zoomAndPan="magnify" viewBox="0 0 375 112.499997" height="150" preserveAspectRatio="xMidYMid meet" version="1.2"><defs/><g id="5e58f39829"><g style="fill:#ffffff;fill-opacity:1;"><g transform="translate(10.098317, 86.892284)"><path style="stroke:none" d="M 23.921875 -52.6875 C 23.921875 -53.1875 23.835938 -53.765625 23.671875 -54.421875 C 23.515625 -55.085938 23.414062 -55.519531 23.375 -55.71875 C 23.332031 -55.925781 23.390625 -56.238281 23.546875 -56.65625 C 24.128906 -57.3125 24.789062 -57.90625 25.53125 -58.4375 C 26.28125 -58.976562 27.457031 -59.660156 29.0625 -60.484375 C 30.675781 -61.316406 31.941406 -62.023438 32.859375 -62.609375 C 33.265625 -62.847656 33.800781 -63.09375 34.46875 -63.34375 L 34.71875 -62.96875 C 34.050781 -62.3125 33.675781 -61.816406 33.59375 -61.484375 C 33.175781 -60.078125 32.96875 -57.890625 32.96875 -54.921875 C 33.050781 -52.273438 33.09375 -48.347656 33.09375 -43.140625 C 33.84375 -44.710938 34.257812 -45.742188 34.34375 -46.234375 L 35.453125 -51.078125 C 36.523438 -55.210938 38.015625 -59.21875 39.921875 -63.09375 C 40.003906 -63.425781 40.207031 -63.675781 40.53125 -63.84375 C 42.101562 -63.425781 43.097656 -63.132812 43.515625 -62.96875 C 44.753906 -62.476562 46.425781 -61.984375 48.53125 -61.484375 C 50.632812 -60.992188 53.03125 -60.644531 55.71875 -60.4375 C 58.40625 -60.226562 60.367188 -60.535156 61.609375 -61.359375 C 58.390625 -58.140625 56.65625 -54.503906 56.40625 -50.453125 C 56.070312 -47.484375 56.007812 -41.695312 56.21875 -33.09375 C 56.425781 -24.5 56.488281 -18.675781 56.40625 -15.625 C 56.15625 -12.894531 54.335938 -10 50.953125 -6.9375 C 47.566406 -3.882812 44.050781 -1.65625 40.40625 -0.25 C 39.664062 0 39.085938 0.164062 38.671875 0.25 C 38.347656 0.332031 37.648438 0.578125 36.578125 0.984375 L 36.328125 0.984375 C 36.242188 0.910156 36.488281 0.707031 37.0625 0.375 C 37.226562 0.207031 37.3125 0.125 37.3125 0.125 C 35.082031 0.289062 32.867188 -0.242188 30.671875 -1.484375 C 28.484375 -2.722656 26.8125 -4.335938 25.65625 -6.328125 C 25 -5.242188 24.007812 -4.207031 22.6875 -3.21875 C 21.363281 -2.226562 19.832031 -1.195312 18.09375 -0.125 C 16.363281 0.945312 15.289062 1.609375 14.875 1.859375 C 14.789062 1.941406 14.644531 1.859375 14.4375 1.609375 C 14.226562 1.359375 14.085938 1.234375 14.015625 1.234375 C 14.085938 1.148438 14.25 0.984375 14.5 0.734375 C 14.75 0.492188 14.957031 0.269531 15.125 0.0625 C 15.289062 -0.144531 15.332031 -0.25 15.25 -0.25 C 10.125 -2.5625 6.691406 -5.535156 4.953125 -9.171875 C 4.460938 -8.515625 3.640625 -8.269531 2.484375 -8.4375 C 2.398438 -8.4375 2.273438 -8.640625 2.109375 -9.046875 C 2.597656 -9.296875 3.007812 -9.8125 3.34375 -10.59375 C 3.675781 -11.382812 3.800781 -11.984375 3.71875 -12.390625 C 3.71875 -12.640625 3.71875 -13.550781 3.71875 -15.125 C 3.71875 -16.695312 3.738281 -18.882812 3.78125 -21.6875 C 3.820312 -24.5 3.84375 -27.019531 3.84375 -29.25 C 3.84375 -29.332031 3.863281 -30.222656 3.90625 -31.921875 C 3.945312 -33.617188 3.945312 -35.207031 3.90625 -36.6875 C 3.863281 -38.175781 3.820312 -40.015625 3.78125 -42.203125 C 3.738281 -44.398438 3.65625 -46.320312 3.53125 -47.96875 C 3.40625 -49.625 3.195312 -51.175781 2.90625 -52.625 C 2.625 -54.070312 2.253906 -55.082031 1.796875 -55.65625 C 1.335938 -56.238281 0.820312 -56.28125 0.25 -55.78125 C 0.414062 -57.6875 1.78125 -60.003906 4.34375 -62.734375 C 4.832031 -63.640625 6.234375 -63.472656 8.546875 -62.234375 C 10.867188 -60.992188 12.070312 -59.878906 12.15625 -58.890625 C 12.226562 -55.828125 12.285156 -48.53125 12.328125 -37 C 12.367188 -25.476562 12.390625 -18.1875 12.390625 -15.125 C 12.640625 -13.300781 13.21875 -11.832031 14.125 -10.71875 C 15.039062 -9.601562 16.40625 -8.425781 18.21875 -7.1875 L 18.84375 -6.6875 C 20.5 -5.863281 21.695312 -5.410156 22.4375 -5.328125 C 22.769531 -5.328125 23.265625 -5.695312 23.921875 -6.4375 C 24.585938 -7.1875 24.960938 -8.015625 25.046875 -8.921875 C 24.878906 -9.585938 24.796875 -10.164062 24.796875 -10.65625 C 24.460938 -16.695312 24.253906 -21.117188 24.171875 -23.921875 L 22.9375 -23.921875 C 22.851562 -24.003906 22.359375 -24.003906 21.453125 -23.921875 C 19.046875 -23.753906 17.304688 -23.34375 16.234375 -22.6875 C 15.578125 -22.1875 14.796875 -20.863281 13.890625 -18.71875 L 13.640625 -18.84375 C 13.390625 -18.84375 13.265625 -18.925781 13.265625 -19.09375 C 13.765625 -21.238281 14.632812 -23.550781 15.875 -26.03125 C 17.113281 -28.507812 18.472656 -30.039062 19.953125 -30.625 C 20.117188 -30.707031 20.410156 -30.75 20.828125 -30.75 L 24.046875 -30.875 C 23.960938 -35.75 23.921875 -43.019531 23.921875 -52.6875 Z M 33.21875 -36.6875 L 33.21875 -30.875 C 37.601562 -31.03125 40.375 -31.523438 41.53125 -32.359375 C 42.1875 -32.847656 42.972656 -34.128906 43.890625 -36.203125 L 44.140625 -36.203125 C 44.378906 -36.117188 44.5 -36.035156 44.5 -35.953125 C 44.007812 -33.722656 43.144531 -31.367188 41.90625 -28.890625 C 40.664062 -26.410156 39.300781 -24.878906 37.8125 -24.296875 C 37.5625 -24.296875 37.207031 -24.273438 36.75 -24.234375 C 36.300781 -24.191406 35.742188 -24.148438 35.078125 -24.109375 C 34.421875 -24.066406 33.84375 -24.046875 33.34375 -24.046875 C 33.257812 -23.304688 33.21875 -22.066406 33.21875 -20.328125 C 33.21875 -19.921875 33.238281 -19.425781 33.28125 -18.84375 C 33.320312 -18.257812 33.34375 -17.847656 33.34375 -17.609375 C 33.257812 -13.304688 34.601562 -9.75 37.375 -6.9375 C 40.144531 -4.132812 42.851562 -3.390625 45.5 -4.703125 C 47.070312 -5.535156 48.019531 -7.726562 48.34375 -11.28125 C 48.507812 -13.101562 48.363281 -17.359375 47.90625 -24.046875 C 47.457031 -30.742188 47.316406 -36.675781 47.484375 -41.84375 C 47.648438 -47.007812 48.472656 -50.046875 49.953125 -50.953125 C 50.285156 -51.117188 50.703125 -51.285156 51.203125 -51.453125 C 50.367188 -51.453125 49.582031 -51.53125 48.84375 -51.6875 C 48.425781 -51.769531 47.617188 -51.957031 46.421875 -52.25 C 45.222656 -52.539062 44.171875 -52.75 43.265625 -52.875 C 42.359375 -53 41.382812 -53.0625 40.34375 -53.0625 C 39.3125 -53.0625 38.425781 -52.75 37.6875 -52.125 C 36.945312 -51.507812 36.410156 -50.625 36.078125 -49.46875 C 35.992188 -48.882812 35.660156 -47.597656 35.078125 -45.609375 C 34.503906 -43.628906 34.050781 -41.832031 33.71875 -40.21875 C 33.382812 -38.613281 33.21875 -37.4375 33.21875 -36.6875 Z M 33.21875 -36.6875 "/></g></g><g style="fill:#ffffff;fill-opacity:1;"><g transform="translate(69.602861, 86.892284)"><path style="stroke:none" d="M 16.109375 -74.140625 C 17.847656 -74.140625 18.863281 -73.3125 19.15625 -71.65625 C 19.445312 -70 19.363281 -68.40625 18.90625 -66.875 C 18.445312 -65.351562 18.550781 -64.34375 19.21875 -63.84375 C 19.382812 -63.757812 19.609375 -63.613281 19.890625 -63.40625 C 20.179688 -63.195312 20.367188 -63.09375 20.453125 -63.09375 C 21.773438 -62.601562 23.257812 -62.171875 24.90625 -61.796875 C 26.5625 -61.421875 28.566406 -61.128906 30.921875 -60.921875 C 33.285156 -60.722656 35.046875 -61.078125 36.203125 -61.984375 C 36.367188 -62.066406 36.410156 -62.023438 36.328125 -61.859375 C 36.328125 -61.203125 35.910156 -60.582031 35.078125 -60 C 35.078125 -59.914062 35.035156 -59.832031 34.953125 -59.75 C 34.867188 -59.582031 34.804688 -59.457031 34.765625 -59.375 C 34.734375 -59.289062 34.675781 -59.1875 34.59375 -59.0625 C 34.507812 -58.945312 34.46875 -58.847656 34.46875 -58.765625 C 34.300781 -58.597656 34.070312 -58.347656 33.78125 -58.015625 C 33.488281 -57.679688 33.300781 -57.4375 33.21875 -57.28125 C 32.8125 -56.863281 32.273438 -56.242188 31.609375 -55.421875 C 30.453125 -54.253906 30.328125 -53.835938 31.234375 -54.171875 C 31.734375 -54.335938 32.601562 -54.753906 33.84375 -55.421875 C 34.914062 -55.910156 35.410156 -56.113281 35.328125 -56.03125 C 33.921875 -53.21875 33.195312 -48.523438 33.15625 -41.953125 C 33.113281 -35.390625 33.34375 -29.503906 33.84375 -24.296875 C 34.007812 -21.484375 34.132812 -18.257812 34.21875 -14.625 C 34.21875 -11.738281 32.644531 -8.785156 29.5 -5.765625 C 26.363281 -2.742188 23.019531 -0.738281 19.46875 0.25 C 18.96875 0.414062 18.71875 0.910156 18.71875 1.734375 C 18.550781 6.273438 20.039062 11.148438 23.1875 16.359375 C 23.019531 16.191406 22.5 15.71875 21.625 14.9375 C 20.757812 14.15625 20.078125 13.515625 19.578125 13.015625 C 19.085938 12.515625 18.570312 11.832031 18.03125 10.96875 C 17.5 10.101562 17.191406 9.296875 17.109375 8.546875 C 17.109375 7.890625 17.289062 6.878906 17.65625 5.515625 C 18.03125 4.148438 18.21875 2.765625 18.21875 1.359375 L 18.21875 0.5 C 18.132812 0.5 17.472656 0.679688 16.234375 1.046875 C 14.992188 1.421875 14.253906 1.648438 14.015625 1.734375 L 13.765625 1.859375 C 13.597656 1.859375 13.738281 1.691406 14.1875 1.359375 C 14.644531 1.035156 14.789062 0.875 14.625 0.875 C 13.21875 1.28125 11.6875 0.84375 10.03125 -0.4375 C 8.382812 -1.71875 6.984375 -3.179688 5.828125 -4.828125 C 5.078125 -5.742188 4.164062 -7.441406 3.09375 -9.921875 C 2.1875 -9.253906 1.40625 -8.59375 0.75 -7.9375 L -0.125 -8.4375 C 1.363281 -10.75 2.191406 -17.726562 2.359375 -29.375 C 2.359375 -32.601562 2.296875 -36.738281 2.171875 -41.78125 C 2.046875 -46.820312 1.984375 -49.878906 1.984375 -50.953125 C 2.066406 -52.109375 2.128906 -52.847656 2.171875 -53.171875 C 2.210938 -53.503906 2.351562 -53.878906 2.59375 -54.296875 C 2.84375 -54.710938 3.34375 -55.207031 4.09375 -55.78125 C 4.664062 -56.28125 5.859375 -57.5625 7.671875 -59.625 C 9.492188 -61.695312 10.820312 -62.9375 11.65625 -63.34375 C 13.71875 -64.414062 15.742188 -64.539062 17.734375 -63.71875 C 18.054688 -63.800781 18.21875 -65.375 18.21875 -68.4375 C 18.21875 -71.988281 17.515625 -73.890625 16.109375 -74.140625 Z M 17.84375 -54.046875 C 15.613281 -55.035156 13.632812 -55.242188 11.90625 -54.671875 C 11.15625 -54.503906 10.78125 -52.023438 10.78125 -47.234375 L 10.53125 -37.5625 C 10.445312 -37.144531 10.40625 -36.609375 10.40625 -35.953125 C 10.488281 -35.046875 10.488281 -31.78125 10.40625 -26.15625 C 10.332031 -20.539062 10.457031 -17.398438 10.78125 -16.734375 C 10.78125 -14.421875 11.484375 -11.941406 12.890625 -9.296875 C 14.296875 -6.648438 15.910156 -4.789062 17.734375 -3.71875 C 18.140625 -4.050781 18.34375 -4.378906 18.34375 -4.703125 L 18.21875 -6.9375 L 18.34375 -6.8125 L 18.34375 -9.296875 C 18.175781 -10.535156 18.132812 -11.859375 18.21875 -13.265625 L 18.21875 -19.59375 C 18.21875 -19.75 18.09375 -19.828125 17.84375 -19.828125 C 17.601562 -20.078125 17.234375 -20.367188 16.734375 -20.703125 C 15.828125 -21.859375 15.082031 -23.015625 14.5 -24.171875 C 14.175781 -24.503906 14.238281 -24.851562 14.6875 -25.21875 C 15.144531 -25.59375 15.765625 -26.148438 16.546875 -26.890625 C 17.335938 -27.640625 17.894531 -28.46875 18.21875 -29.375 L 18.21875 -52.9375 C 18.21875 -53.59375 18.09375 -53.960938 17.84375 -54.046875 Z M 18.84375 -4.953125 C 18.84375 -3.796875 19.007812 -3.175781 19.34375 -3.09375 C 23.550781 -3.09375 25.78125 -4.832031 26.03125 -8.3125 C 26.363281 -10.707031 26.21875 -15.269531 25.59375 -22 C 24.976562 -28.738281 24.648438 -34.875 24.609375 -40.40625 C 24.566406 -45.945312 25.375 -49.503906 27.03125 -51.078125 C 27.351562 -51.410156 27.597656 -51.613281 27.765625 -51.6875 C 27.109375 -51.6875 26.488281 -51.726562 25.90625 -51.8125 C 25.25 -51.976562 24.195312 -52.304688 22.75 -52.796875 C 21.300781 -53.296875 20.207031 -53.585938 19.46875 -53.671875 C 19.132812 -53.753906 18.945312 -53.753906 18.90625 -53.671875 C 18.863281 -53.585938 18.84375 -53.425781 18.84375 -53.1875 C 18.84375 -52.9375 18.84375 -52.726562 18.84375 -52.5625 L 18.84375 -47.96875 C 18.84375 -47.726562 18.800781 -47.273438 18.71875 -46.609375 C 18.632812 -45.953125 18.59375 -45.5 18.59375 -45.25 C 18.59375 -41.363281 18.675781 -36.363281 18.84375 -30.25 C 19.09375 -29.75 19.175781 -29.375 19.09375 -29.125 C 19.34375 -28.800781 19.796875 -28.222656 20.453125 -27.390625 C 21.117188 -26.566406 21.613281 -25.863281 21.9375 -25.28125 C 22.269531 -24.707031 22.4375 -24.171875 22.4375 -23.671875 C 22.101562 -23.265625 21.546875 -22.8125 20.765625 -22.3125 C 19.984375 -21.820312 19.425781 -21.347656 19.09375 -20.890625 C 18.757812 -20.429688 18.757812 -19.832031 19.09375 -19.09375 C 19.007812 -19.175781 18.925781 -19.21875 18.84375 -19.21875 Z M 18.84375 -4.953125 "/></g></g><g style="fill:#ffffff;fill-opacity:1;"><g transform="translate(105.181617, 86.892284)"><path style="stroke:none" d=""/></g></g><g style="fill:#ffffff;fill-opacity:1;"><g transform="translate(129.975178, 86.892284)"><path style="stroke:none" d="M 11.15625 -26.28125 C 10.820312 -24.21875 11.234375 -22.128906 12.390625 -20.015625 C 13.546875 -17.910156 14.992188 -16.113281 16.734375 -14.625 C 20.785156 -11.238281 24.273438 -8.96875 27.203125 -7.8125 C 30.140625 -6.65625 32.207031 -6.300781 33.40625 -6.75 C 34.601562 -7.207031 35.882812 -8.015625 37.25 -9.171875 C 38.613281 -10.328125 39.503906 -10.988281 39.921875 -11.15625 C 37.023438 -7.019531 33.984375 -4 30.796875 -2.09375 C 27.617188 -0.195312 25.125 0.332031 23.3125 -0.5 C 16.78125 -3.300781 12.066406 -6.332031 9.171875 -9.59375 C 6.273438 -12.863281 4.953125 -16.046875 5.203125 -19.140625 C 5.453125 -22.242188 6.773438 -25.65625 9.171875 -29.375 C 10.742188 -31.769531 12.9375 -34.5 15.75 -37.5625 C 15.582031 -37.726562 14.523438 -38.535156 12.578125 -39.984375 C 10.640625 -41.429688 9.378906 -42.691406 8.796875 -43.765625 C 7.722656 -45.828125 8.15625 -49.109375 10.09375 -53.609375 C 12.039062 -58.117188 14.582031 -62.335938 17.71875 -66.265625 C 20.863281 -70.191406 23.507812 -72.523438 25.65625 -73.265625 C 27.8125 -74.003906 31.328125 -72.925781 36.203125 -70.03125 C 41.078125 -67.144531 43.597656 -64.503906 43.765625 -62.109375 C 43.929688 -59.546875 42.789062 -56.773438 40.34375 -53.796875 C 37.90625 -50.828125 34.128906 -46.945312 29.015625 -42.15625 C 30.828125 -41.238281 32.804688 -39.4375 34.953125 -36.75 C 37.109375 -34.070312 39.796875 -30.414062 43.015625 -25.78125 C 44.671875 -27.101562 46.035156 -28.140625 47.109375 -28.890625 C 47.191406 -28.972656 47.296875 -29.050781 47.421875 -29.125 C 47.546875 -29.207031 47.648438 -29.25 47.734375 -29.25 L 48.09375 -29.25 C 48.925781 -29.414062 50.164062 -29.210938 51.8125 -28.640625 C 52.394531 -28.304688 52.992188 -27.890625 53.609375 -27.390625 C 54.234375 -26.898438 54.710938 -26.445312 55.046875 -26.03125 L 55.53125 -25.53125 C 55.039062 -25.695312 54.671875 -25.78125 54.421875 -25.78125 C 53.597656 -25.78125 52.316406 -25.203125 50.578125 -24.046875 C 49.171875 -23.140625 47.765625 -22.148438 46.359375 -21.078125 C 49.753906 -16.441406 52.75 -12.988281 55.34375 -10.71875 C 57.945312 -8.445312 60.328125 -7.722656 62.484375 -8.546875 C 63.640625 -8.960938 64.628906 -9.625 65.453125 -10.53125 C 66.273438 -11.445312 66.9375 -12.335938 67.4375 -13.203125 C 67.9375 -14.066406 68.3125 -14.582031 68.5625 -14.75 C 67.976562 -12.101562 65.828125 -9.046875 62.109375 -5.578125 C 58.390625 -2.109375 55.535156 -0.375 53.546875 -0.375 C 50.742188 -0.375 45.867188 -5.332031 38.921875 -15.25 C 36.941406 -13.757812 35.5 -12.644531 34.59375 -11.90625 C 34.257812 -11.738281 34.050781 -11.613281 33.96875 -11.53125 L 33.59375 -11.53125 C 32.769531 -11.363281 31.320312 -11.648438 29.25 -12.390625 C 28.675781 -12.722656 28.140625 -13.113281 27.640625 -13.5625 C 27.148438 -14.019531 26.78125 -14.414062 26.53125 -14.75 L 26.15625 -15.25 C 26.65625 -15.082031 27.023438 -15 27.265625 -15 C 28.265625 -15.164062 29.546875 -15.742188 31.109375 -16.734375 C 32.023438 -17.472656 33.472656 -18.585938 35.453125 -20.078125 C 29.753906 -28.265625 25.5 -33.0625 22.6875 -34.46875 C 20.125 -35.625 18.390625 -36.363281 17.484375 -36.6875 C 13.679688 -32.644531 11.570312 -29.175781 11.15625 -26.28125 Z M 27.15625 -42.890625 C 30.125 -45.117188 32.492188 -47.722656 34.265625 -50.703125 C 36.046875 -53.679688 36.609375 -55.910156 35.953125 -57.390625 C 34.878906 -60.035156 32.625 -62.164062 29.1875 -63.78125 C 25.757812 -65.394531 22.765625 -65.785156 20.203125 -64.953125 C 18.796875 -64.460938 17.429688 -63.179688 16.109375 -61.109375 C 14.785156 -59.046875 14.003906 -57.109375 13.765625 -55.296875 C 13.097656 -50.910156 17.5625 -46.773438 27.15625 -42.890625 Z M 27.15625 -42.890625 "/></g></g><g style="fill:#ffffff;fill-opacity:1;"><g transform="translate(200.636807, 86.892284)"><path style="stroke:none" d=""/></g></g><g style="fill:#ffffff;fill-opacity:1;"><g transform="translate(225.430378, 86.892284)"><path style="stroke:none" d="M 12.265625 -49.71875 C 12.265625 -48.3125 12.304688 -47.191406 12.390625 -46.359375 C 12.554688 -47.191406 12.722656 -47.894531 12.890625 -48.46875 C 13.304688 -50.125 14.296875 -53.222656 15.859375 -57.765625 C 17.429688 -62.316406 18.507812 -64.796875 19.09375 -65.203125 C 19.175781 -65.203125 19.257812 -65.203125 19.34375 -65.203125 C 19.425781 -65.203125 19.425781 -65.160156 19.34375 -65.078125 C 19.257812 -64.503906 19.257812 -64.175781 19.34375 -64.09375 L 21.8125 -63.21875 C 23.21875 -62.726562 24.847656 -62.273438 26.703125 -61.859375 C 28.566406 -61.441406 30.757812 -61.128906 33.28125 -60.921875 C 35.800781 -60.722656 37.640625 -61.035156 38.796875 -61.859375 C 38.878906 -61.941406 38.921875 -61.898438 38.921875 -61.734375 C 39.085938 -60.992188 38.675781 -60.375 37.6875 -59.875 C 37.519531 -59.21875 37.3125 -58.804688 37.0625 -58.640625 C 36.976562 -58.472656 36.789062 -58.203125 36.5 -57.828125 C 36.21875 -57.460938 35.992188 -57.195312 35.828125 -57.03125 L 35.078125 -56.28125 C 35.078125 -56.195312 35.035156 -56.15625 34.953125 -56.15625 C 34.796875 -55.988281 34.796875 -52.519531 34.953125 -45.75 L 35.203125 -46.359375 C 35.453125 -47.597656 35.617188 -48.300781 35.703125 -48.46875 C 35.867188 -48.96875 36.09375 -49.648438 36.375 -50.515625 C 36.664062 -51.378906 36.894531 -52.082031 37.0625 -52.625 C 37.226562 -53.164062 37.457031 -53.828125 37.75 -54.609375 C 38.039062 -55.390625 38.285156 -56.03125 38.484375 -56.53125 C 38.691406 -57.03125 38.941406 -57.609375 39.234375 -58.265625 C 39.523438 -58.921875 39.773438 -59.457031 39.984375 -59.875 C 40.191406 -60.289062 40.4375 -60.703125 40.71875 -61.109375 C 41.007812 -61.523438 41.300781 -61.859375 41.59375 -62.109375 C 41.882812 -62.359375 42.148438 -62.523438 42.390625 -62.609375 C 43.140625 -62.847656 44.671875 -62.679688 46.984375 -62.109375 C 49.046875 -61.285156 51.378906 -60.789062 53.984375 -60.625 C 56.585938 -60.457031 59.128906 -60.867188 61.609375 -61.859375 C 61.691406 -61.941406 61.734375 -61.898438 61.734375 -61.734375 C 61.898438 -60.992188 61.488281 -60.375 60.5 -59.875 C 60.332031 -59.21875 60.125 -58.804688 59.875 -58.640625 C 59.707031 -58.472656 59.476562 -58.203125 59.1875 -57.828125 C 58.90625 -57.460938 58.722656 -57.195312 58.640625 -57.03125 L 57.890625 -56.28125 C 57.890625 -56.195312 57.847656 -56.15625 57.765625 -56.15625 C 57.597656 -55.25 57.535156 -54.175781 57.578125 -52.9375 C 57.617188 -51.695312 57.679688 -49.566406 57.765625 -46.546875 C 57.847656 -43.535156 57.890625 -41.367188 57.890625 -40.046875 C 57.972656 -38.804688 57.992188 -37.210938 57.953125 -35.265625 C 57.910156 -33.328125 57.890625 -31.695312 57.890625 -30.375 L 57.890625 -22.1875 C 57.890625 -22.019531 57.828125 -20.488281 57.703125 -17.59375 C 57.578125 -14.707031 57.679688 -13.222656 58.015625 -13.140625 C 58.765625 -7.441406 61 -6.160156 64.71875 -9.296875 L 64.953125 -9.046875 C 64.128906 -7.554688 62.804688 -5.71875 60.984375 -3.53125 C 59.171875 -1.34375 58.015625 -0.25 57.515625 -0.25 C 56.523438 -0.25 55.675781 -0.351562 54.96875 -0.5625 C 54.269531 -0.769531 53.671875 -1.203125 53.171875 -1.859375 C 52.679688 -2.515625 52.332031 -3.007812 52.125 -3.34375 C 51.914062 -3.675781 51.566406 -4.378906 51.078125 -5.453125 C 50.171875 -7.515625 49.71875 -11.066406 49.71875 -16.109375 C 49.71875 -19.992188 49.65625 -24.332031 49.53125 -29.125 C 49.40625 -33.925781 49.34375 -38.269531 49.34375 -42.15625 C 49.34375 -42.894531 49.28125 -43.550781 49.15625 -44.125 C 49.03125 -44.707031 49.007812 -45.125 49.09375 -45.375 C 49.175781 -45.625 49.335938 -46.015625 49.578125 -46.546875 C 49.828125 -47.085938 50.410156 -48.144531 51.328125 -49.71875 C 51.566406 -50.207031 52.1875 -50.945312 53.1875 -51.9375 C 52.851562 -51.769531 52.351562 -51.6875 51.6875 -51.6875 L 51.328125 -51.6875 L 51.078125 -51.8125 C 50.992188 -51.8125 50.910156 -51.8125 50.828125 -51.8125 L 50.703125 -51.8125 C 50.046875 -51.976562 48.953125 -52.289062 47.421875 -52.75 C 45.890625 -53.207031 44.8125 -53.453125 44.1875 -53.484375 C 43.570312 -53.523438 42.519531 -53.46875 41.03125 -53.3125 L 39.921875 -52.9375 C 38.429688 -52.1875 36.941406 -48.628906 35.453125 -42.265625 C 35.285156 -41.441406 35.203125 -40.90625 35.203125 -40.65625 L 35.203125 -34.71875 C 38.921875 -34.875 41.316406 -35.328125 42.390625 -36.078125 C 42.972656 -36.484375 43.71875 -37.679688 44.625 -39.671875 L 44.875 -39.671875 C 45.125 -39.585938 45.25 -39.503906 45.25 -39.421875 C 44.75 -37.359375 43.921875 -35.164062 42.765625 -32.84375 C 41.609375 -30.53125 40.328125 -29.085938 38.921875 -28.515625 C 38.097656 -28.347656 36.816406 -28.265625 35.078125 -28.265625 L 35.078125 -22.1875 C 35.078125 -22.019531 35.015625 -20.488281 34.890625 -17.59375 C 34.773438 -14.707031 34.878906 -13.222656 35.203125 -13.140625 C 35.953125 -7.441406 38.1875 -6.160156 41.90625 -9.296875 L 42.15625 -9.046875 C 41.238281 -7.398438 39.953125 -5.519531 38.296875 -3.40625 C 36.648438 -1.300781 35.457031 -0.25 34.71875 -0.25 C 33.71875 -0.25 32.863281 -0.351562 32.15625 -0.5625 C 31.457031 -0.769531 30.859375 -1.203125 30.359375 -1.859375 C 29.867188 -2.515625 29.519531 -3.007812 29.3125 -3.34375 C 29.113281 -3.675781 28.765625 -4.378906 28.265625 -5.453125 C 27.359375 -7.515625 26.90625 -11.066406 26.90625 -16.109375 C 26.90625 -18.097656 26.882812 -20.414062 26.84375 -23.0625 C 26.800781 -25.707031 26.78125 -27.484375 26.78125 -28.390625 C 25.289062 -28.390625 24.210938 -28.347656 23.546875 -28.265625 C 21.316406 -28.097656 19.664062 -27.6875 18.59375 -27.03125 C 18.019531 -26.53125 17.273438 -25.289062 16.359375 -23.3125 C 16.359375 -23.394531 16.273438 -23.4375 16.109375 -23.4375 L 15.875 -23.671875 C 16.363281 -25.828125 17.1875 -28.039062 18.34375 -30.3125 C 19.5 -32.582031 20.78125 -34.007812 22.1875 -34.59375 C 22.519531 -34.59375 22.8125 -34.632812 23.0625 -34.71875 L 26.65625 -34.71875 C 26.65625 -35.375 26.632812 -36.503906 26.59375 -38.109375 C 26.550781 -39.722656 26.53125 -41.070312 26.53125 -42.15625 C 26.53125 -42.894531 26.46875 -43.550781 26.34375 -44.125 C 26.21875 -44.707031 26.195312 -45.125 26.28125 -45.375 C 26.363281 -45.625 26.53125 -46.015625 26.78125 -46.546875 C 27.03125 -47.085938 27.609375 -48.144531 28.515625 -49.71875 C 28.765625 -50.207031 29.382812 -50.945312 30.375 -51.9375 C 30.039062 -51.769531 29.546875 -51.6875 28.890625 -51.6875 L 28.515625 -51.6875 L 28.265625 -51.8125 C 28.179688 -51.8125 28.097656 -51.8125 28.015625 -51.8125 L 27.890625 -51.8125 C 27.234375 -51.976562 26.140625 -52.289062 24.609375 -52.75 C 23.078125 -53.207031 22 -53.453125 21.375 -53.484375 C 20.757812 -53.523438 19.707031 -53.46875 18.21875 -53.3125 L 17.109375 -52.9375 C 15.617188 -52.1875 14.128906 -48.628906 12.640625 -42.265625 C 12.472656 -41.441406 12.390625 -40.90625 12.390625 -40.65625 L 12.390625 -38.671875 C 12.390625 -38.585938 12.347656 -38.507812 12.265625 -38.4375 L 12.265625 -22.1875 C 12.265625 -22.019531 12.203125 -20.488281 12.078125 -17.59375 C 11.960938 -14.707031 12.066406 -13.222656 12.390625 -13.140625 C 13.304688 -7.441406 15.539062 -6.160156 19.09375 -9.296875 L 19.34375 -9.046875 C 18.675781 -7.640625 17.410156 -5.820312 15.546875 -3.59375 C 13.691406 -1.363281 12.476562 -0.25 11.90625 -0.25 C 10.90625 -0.25 10.054688 -0.351562 9.359375 -0.5625 C 8.660156 -0.769531 8.0625 -1.203125 7.5625 -1.859375 C 7.0625 -2.515625 6.707031 -3.007812 6.5 -3.34375 C 6.300781 -3.675781 5.953125 -4.378906 5.453125 -5.453125 C 4.546875 -7.515625 4.09375 -11.066406 4.09375 -16.109375 C 4.09375 -21.898438 4.050781 -26.320312 3.96875 -29.375 C 3.96875 -31.851562 3.945312 -35.613281 3.90625 -40.65625 C 3.863281 -45.695312 3.84375 -49.414062 3.84375 -51.8125 C 3.84375 -51.894531 3.84375 -52.019531 3.84375 -52.1875 C 3.84375 -52.769531 3.84375 -53.222656 3.84375 -53.546875 C 3.84375 -53.878906 3.800781 -54.375 3.71875 -55.03125 C 3.632812 -55.695312 3.507812 -56.195312 3.34375 -56.53125 C 3.175781 -56.863281 2.96875 -57.171875 2.71875 -57.453125 C 2.476562 -57.742188 2.128906 -57.828125 1.671875 -57.703125 C 1.210938 -57.578125 0.695312 -57.3125 0.125 -56.90625 C 0.375 -58.71875 1.738281 -61.03125 4.21875 -63.84375 C 4.707031 -64.664062 6.085938 -64.519531 8.359375 -63.40625 C 10.640625 -62.289062 11.863281 -61.195312 12.03125 -60.125 C 12.1875 -59.625 12.265625 -56.15625 12.265625 -49.71875 Z M 12.265625 -49.71875 "/></g></g><g style="fill:#ffffff;fill-opacity:1;"><g transform="translate(288.901887, 86.892284)"><path style="stroke:none" d="M 25.65625 -23.4375 C 24.832031 -23.1875 22.828125 -22.976562 19.640625 -22.8125 C 16.460938 -22.644531 14.378906 -22.476562 13.390625 -22.3125 C 12.566406 -22.144531 12.15625 -21.976562 12.15625 -21.8125 C 12.070312 -21.726562 12.070312 -21.484375 12.15625 -21.078125 C 12.644531 -16.523438 14.375 -13.007812 17.34375 -10.53125 C 20.320312 -8.050781 23.585938 -7.328125 27.140625 -8.359375 C 30.703125 -9.398438 33.429688 -12.148438 35.328125 -16.609375 C 34.921875 -11.566406 33.144531 -7.332031 30 -3.90625 C 26.863281 -0.476562 22.9375 0.53125 18.21875 -0.875 C 13.757812 -1.28125 9.628906 -4.085938 5.828125 -9.296875 C 4.253906 -8.140625 2.679688 -7.351562 1.109375 -6.9375 L 0.625 -7.5625 L 0.625 -7.6875 C 1.445312 -8.101562 2.101562 -8.785156 2.59375 -9.734375 C 3.09375 -10.679688 3.445312 -11.859375 3.65625 -13.265625 C 3.863281 -14.671875 3.988281 -15.910156 4.03125 -16.984375 C 4.070312 -18.054688 4.070312 -19.4375 4.03125 -21.125 C 3.988281 -22.820312 3.96875 -23.960938 3.96875 -24.546875 L 3.96875 -26.90625 C 1.320312 -27.476562 -0.535156 -28.382812 -1.609375 -29.625 C -0.203125 -29.21875 1.570312 -29.257812 3.71875 -29.75 C 3.71875 -38.84375 3.675781 -47.148438 3.59375 -54.671875 C 3.425781 -57.722656 3.015625 -59.375 2.359375 -59.625 C 1.859375 -59.875 1.195312 -59.710938 0.375 -59.140625 L 0.25 -59.375 C 0.164062 -59.457031 0.164062 -59.539062 0.25 -59.625 C 1.570312 -60.539062 2.9375 -61.265625 4.34375 -61.796875 C 5.75 -62.335938 7.070312 -62.6875 8.3125 -62.84375 C 9.550781 -63.007812 10.539062 -62.722656 11.28125 -61.984375 C 12.019531 -61.242188 12.3125 -60.085938 12.15625 -58.515625 C 11.988281 -56.523438 11.90625 -53.671875 11.90625 -49.953125 C 11.90625 -48.054688 11.945312 -47.066406 12.03125 -46.984375 L 12.765625 -49.59375 C 12.847656 -49.832031 12.890625 -49.992188 12.890625 -50.078125 C 14.378906 -56.859375 15.992188 -61.15625 17.734375 -62.96875 C 18.804688 -63.882812 19.585938 -64.257812 20.078125 -64.09375 C 20.578125 -63.925781 21.53125 -63.222656 22.9375 -61.984375 C 24.832031 -60.160156 27.1875 -58.671875 30 -57.515625 C 32.8125 -56.359375 34.796875 -56.15625 35.953125 -56.90625 C 28.265625 -47.394531 20.410156 -38.21875 12.390625 -29.375 L 13.640625 -29.375 C 14.546875 -29.457031 15.84375 -29.5625 17.53125 -29.6875 C 19.226562 -29.8125 20.632812 -29.914062 21.75 -30 C 22.875 -30.082031 24.035156 -30.285156 25.234375 -30.609375 C 26.429688 -30.941406 27.398438 -31.398438 28.140625 -31.984375 C 28.796875 -32.484375 29.539062 -33.890625 30.375 -36.203125 C 30.539062 -35.046875 30.5 -33.515625 30.25 -31.609375 C 29.75 -27.398438 28.21875 -24.675781 25.65625 -23.4375 Z M 14.25 -50.828125 C 13.09375 -46.859375 12.472656 -44.296875 12.390625 -43.140625 C 12.148438 -41.160156 12.03125 -37.9375 12.03125 -33.46875 C 11.863281 -32.394531 11.863281 -31.773438 12.03125 -31.609375 C 12.113281 -31.359375 14.59375 -33.960938 19.46875 -39.421875 C 24.34375 -44.878906 27.6875 -48.679688 29.5 -50.828125 L 28.765625 -50.578125 L 27.765625 -50.078125 C 26.523438 -49.585938 25.285156 -49.628906 24.046875 -50.203125 C 22.804688 -50.785156 21.753906 -51.507812 20.890625 -52.375 C 20.023438 -53.238281 19.175781 -54 18.34375 -54.65625 C 17.519531 -55.320312 16.773438 -55.382812 16.109375 -54.84375 C 15.453125 -54.3125 14.832031 -52.972656 14.25 -50.828125 Z M 14.25 -50.828125 "/></g></g><g style="fill:#ffffff;fill-opacity:1;"><g transform="translate(323.736842, 86.892284)"><path style="stroke:none" d="M 11.78125 -49.71875 L 11.78125 -46.484375 L 12.265625 -48.46875 C 15.328125 -58.882812 17.394531 -64.460938 18.46875 -65.203125 C 18.71875 -65.203125 18.84375 -65.160156 18.84375 -65.078125 C 18.675781 -64.503906 18.632812 -64.175781 18.71875 -64.09375 L 21.203125 -63.21875 C 22.609375 -62.726562 24.257812 -62.273438 26.15625 -61.859375 C 28.0625 -61.441406 30.273438 -61.128906 32.796875 -60.921875 C 35.316406 -60.722656 37.15625 -61.035156 38.3125 -61.859375 C 38.800781 -62.191406 38.59375 -61.65625 37.6875 -60.25 L 35.203125 -57.03125 C 35.117188 -56.945312 35.015625 -56.820312 34.890625 -56.65625 C 34.773438 -56.488281 34.675781 -56.363281 34.59375 -56.28125 L 34.46875 -56.15625 C 34.46875 -56.070312 34.46875 -55.117188 34.46875 -53.296875 C 34.46875 -51.484375 34.46875 -49.253906 34.46875 -46.609375 C 34.46875 -43.960938 34.488281 -41.335938 34.53125 -38.734375 C 34.570312 -36.128906 34.59375 -33.835938 34.59375 -31.859375 C 34.59375 -29.878906 34.59375 -28.847656 34.59375 -28.765625 L 34.828125 -28.265625 L 34.59375 -28.265625 L 34.59375 -22.1875 C 34.59375 -22.019531 34.53125 -20.488281 34.40625 -17.59375 C 34.28125 -14.707031 34.382812 -13.222656 34.71875 -13.140625 C 35.457031 -7.441406 37.6875 -6.160156 41.40625 -9.296875 L 41.53125 -9.046875 C 40.707031 -7.398438 39.445312 -5.519531 37.75 -3.40625 C 36.050781 -1.300781 34.875 -0.25 34.21875 -0.25 C 33.226562 -0.25 32.378906 -0.351562 31.671875 -0.5625 C 30.972656 -0.769531 30.375 -1.203125 29.875 -1.859375 C 29.375 -2.515625 29.019531 -3.007812 28.8125 -3.34375 C 28.613281 -3.675781 28.265625 -4.378906 27.765625 -5.453125 C 26.859375 -7.273438 26.40625 -10.828125 26.40625 -16.109375 C 26.40625 -19.828125 26.320312 -23.921875 26.15625 -28.390625 L 26.03125 -34.71875 L 26.03125 -42.15625 C 26.03125 -42.894531 25.96875 -43.550781 25.84375 -44.125 C 25.71875 -44.707031 25.695312 -45.125 25.78125 -45.375 C 25.863281 -45.625 26.03125 -46.015625 26.28125 -46.546875 C 26.53125 -47.085938 27.109375 -48.144531 28.015625 -49.71875 C 28.265625 -50.207031 28.882812 -50.945312 29.875 -51.9375 C 29.539062 -51.769531 29.003906 -51.6875 28.265625 -51.6875 L 28.015625 -51.6875 C 27.929688 -51.6875 27.765625 -51.726562 27.515625 -51.8125 L 27.390625 -51.8125 C 26.648438 -51.976562 25.535156 -52.289062 24.046875 -52.75 C 22.554688 -53.207031 21.476562 -53.453125 20.8125 -53.484375 C 20.15625 -53.523438 19.128906 -53.46875 17.734375 -53.3125 C 17.234375 -53.144531 16.859375 -53.019531 16.609375 -52.9375 C 14.796875 -52.03125 13.3125 -48.472656 12.15625 -42.265625 C 12.070312 -42.023438 11.988281 -41.71875 11.90625 -41.34375 C 11.820312 -40.96875 11.78125 -40.738281 11.78125 -40.65625 L 11.78125 -39.671875 L 11.90625 -38.671875 C 11.90625 -38.585938 11.863281 -38.507812 11.78125 -38.4375 L 11.78125 -22.1875 C 11.78125 -22.019531 11.71875 -20.488281 11.59375 -17.59375 C 11.46875 -14.707031 11.570312 -13.222656 11.90625 -13.140625 C 12.644531 -7.441406 14.875 -6.160156 18.59375 -9.296875 L 18.84375 -9.046875 C 18.175781 -7.640625 16.910156 -5.820312 15.046875 -3.59375 C 13.191406 -1.363281 11.976562 -0.25 11.40625 -0.25 C 10.414062 -0.25 9.566406 -0.351562 8.859375 -0.5625 C 8.160156 -0.769531 7.5625 -1.203125 7.0625 -1.859375 C 6.570312 -2.515625 6.222656 -3.007812 6.015625 -3.34375 C 5.804688 -3.675781 5.453125 -4.378906 4.953125 -5.453125 C 4.046875 -7.515625 3.59375 -11.066406 3.59375 -16.109375 C 3.59375 -17.515625 3.570312 -19.6875 3.53125 -22.625 C 3.488281 -25.5625 3.46875 -27.8125 3.46875 -29.375 C 3.300781 -39.289062 3.21875 -46.769531 3.21875 -51.8125 C 3.21875 -55.695312 2.640625 -57.679688 1.484375 -57.765625 C 0.992188 -57.765625 0.375 -57.476562 -0.375 -56.90625 C -0.207031 -58.550781 1.15625 -60.863281 3.71875 -63.84375 C 4.21875 -64.664062 5.601562 -64.519531 7.875 -63.40625 C 10.144531 -62.289062 11.363281 -61.195312 11.53125 -60.125 C 11.53125 -60.039062 11.550781 -59.546875 11.59375 -58.640625 C 11.632812 -57.734375 11.675781 -56.410156 11.71875 -54.671875 C 11.757812 -52.929688 11.78125 -51.28125 11.78125 -49.71875 Z M 11.78125 -49.71875 "/></g></g></g></svg>